# xmcd
#
# Track frame offsets:
#	150
#	14995
#	29934
#	45046
#	57713
#	73836
#	87009
#	102189
#	115930
#	129842
#
# Disc length: 1928 seconds
#
# Revision: 0
# Processed by: cddbd v1.5.2PL0 Copyright (c) Steve Scherf et al.
# Submitted via: EasyCDDAExtractor 16.0.6.1
#
DISCID=8a07860a
DTITLE=Συλλογικός δίσκος - Λαϊκό τραγούδι 1954-1967, 1967-1
DYEAR=2008
DGENRE=Λαϊκή
TTITLE0=Κόκοτας Σταμάτης - Όνειρο απατηλό [[Απόστολος Καλδάρας-Ευτ. Παπαγιαννο
TTITLE0=πούλου]
TTITLE1=Λύδια Γιώτα - Νά 'χα εκατό καρδιές [Νίκος Δαλέζιος]
TTITLE2=Διονυσίου Στράτος - Και τι δεν κάνω [Άκης Πάνου]
TTITLE3=Μπιθικώτσης Γρηγόρης - Άκου, Γρηγόρη, να σού πω [Δήμος Μούτσης-Νίκος Γ
TTITLE3=κάτσος]
TTITLE4=Μπιθικώτσης Γρηγόρης - Κρίμα βρε φίλε μου [Γρηγόρης Μπιθικώτσης-Σ. Παπ
TTITLE4=αϊωάννου]
TTITLE5=Τσετίνης Μπάμπης-Διαμάντη Λ.-Παπαδάκης Μ. - Με ποιο δικαίωμα [Βασίλης 
TTITLE5=Βασιλειάδης-Πυθαγόρας]
TTITLE6=Τσιτσάνης Βασίλης-Λαμπράκη Χαρούλα - Κορίτσι μου όλα για σένα [Βασίλης
TTITLE6=Τσιτσάνης]
TTITLE7=Μπλανς Μπέμπα - Έναν αητό αγάπησα [Γιάννης Σπανός-Αλέκος Σακελλάριος]
TTITLE8=Ζαμπέτας Γιώργος - Δε μού καίγεται καρφάκι [Γιάννης Παπανικολόπουλος]
TTITLE9=Μοσχολιού Βίκυ - Φαρμάκι για γεράματα [Δήμος Μούτσης-Νίκος Γκάτσος]
EXTD=
EXTT0=
EXTT1=
EXTT2=
EXTT3=
EXTT4=
EXTT5=
EXTT6=
EXTT7=
EXTT8=
EXTT9=
PLAYORDER=
